<svg width="50" height="50" viewBox="0 0 50 50" fill="none" xmlns="http://www.w3.org/2000/svg">
<circle cx="25" cy="25" r="25" fill="#1A1F8F"/>
<path opacity="0.3" d="M17.0828 25.4274V31.3174L24.9995 35.6399L32.9162 31.3174V25.4274L24.9995 29.7499L17.0828 25.4274ZM14.2012 20.2499L24.9995 26.1399L35.7978 20.2499L24.9995 14.3599L14.2012 20.2499Z" fill="white"/>
<path d="M25.0007 10.7505L7.58398 20.2505L13.9173 23.7022V33.2022L25.0007 39.2505L36.084 33.2022V23.7022L39.2506 21.9763V32.9172H42.4173V20.2505L25.0007 10.7505ZM32.9173 31.318L25.0007 35.6405L17.084 31.318V25.428L25.0007 29.7505L32.9173 25.428V31.318ZM25.0007 26.1405L14.2023 20.2505L25.0007 14.3605L35.799 20.2505L25.0007 26.1405Z" fill="white"/>
</svg>
