<svg width="50" height="50" viewBox="0 0 50 50" fill="none" xmlns="http://www.w3.org/2000/svg">
<rect width="50" height="50" rx="5" fill="#1A1F8F"/>
<path opacity="0.3" d="M16.1244 26.0062V32.9812L25.4994 38.0999L34.8744 32.9812V26.0062L25.4994 31.1249L16.1244 26.0062ZM12.7119 19.8749L25.4994 26.8499L38.2869 19.8749L25.4994 12.8999L12.7119 19.8749Z" fill="white"/>
<path d="M25.5 8.62549L4.875 19.8755L12.375 23.963V35.213L25.5 42.3755L38.625 35.213V23.963L42.375 21.9192V34.8755H46.125V19.8755L25.5 8.62549ZM34.875 32.9817L25.5 38.1005L16.125 32.9817V26.0067L25.5 31.1255L34.875 26.0067V32.9817ZM25.5 26.8505L12.7125 19.8755L25.5 12.9005L38.2875 19.8755L25.5 26.8505Z" fill="white"/>
</svg>
