<svg width="15" height="15" viewBox="0 0 15 15" fill="none" xmlns="http://www.w3.org/2000/svg">
<g clip-path="url(#clip0_2_79)">
<path d="M7.49997 0C7.74861 0 7.98707 0.0987721 8.16289 0.274587C8.3387 0.450403 8.43747 0.68886 8.43747 0.9375V5.87625L12.7143 3.40688C12.821 3.34435 12.939 3.30353 13.0615 3.28678C13.184 3.27003 13.3086 3.27768 13.4281 3.30928C13.5476 3.34088 13.6597 3.39582 13.758 3.47092C13.8562 3.54602 13.9386 3.63981 14.0004 3.74688C14.0622 3.85395 14.1022 3.9722 14.1182 4.0948C14.1341 4.21741 14.1256 4.34196 14.0932 4.46127C14.0608 4.58059 14.0052 4.69232 13.9294 4.79004C13.8537 4.88775 13.7593 4.96952 13.6518 5.03063L9.37497 7.5L13.6518 9.96937C13.7593 10.0305 13.8537 10.1122 13.9294 10.21C14.0052 10.3077 14.0608 10.4194 14.0932 10.5387C14.1256 10.658 14.1341 10.7826 14.1182 10.9052C14.1022 11.0278 14.0622 11.146 14.0004 11.2531C13.9386 11.3602 13.8562 11.454 13.758 11.5291C13.6597 11.6042 13.5476 11.6591 13.4281 11.6907C13.3086 11.7223 13.184 11.73 13.0615 11.7132C12.939 11.6965 12.821 11.6557 12.7143 11.5931L8.43747 9.12375V14.0625C8.43747 14.3111 8.3387 14.5496 8.16289 14.7254C7.98707 14.9012 7.74861 15 7.49997 15C7.25133 15 7.01288 14.9012 6.83706 14.7254C6.66124 14.5496 6.56247 14.3111 6.56247 14.0625V9.12375L2.2856 11.5931C2.17894 11.6557 2.06096 11.6965 1.93846 11.7132C1.81597 11.73 1.69137 11.7223 1.57184 11.6907C1.45231 11.6591 1.34021 11.6042 1.24199 11.5291C1.14378 11.454 1.06139 11.3602 0.99957 11.2531C0.937749 11.146 0.897719 11.0278 0.881783 10.9052C0.865847 10.7826 0.874319 10.658 0.906714 10.5387C0.939108 10.4194 0.994783 10.3077 1.07053 10.21C1.14629 10.1122 1.24062 10.0305 1.3481 9.96937L5.62497 7.5L1.3481 5.03063C1.13453 4.90542 0.979153 4.70083 0.915875 4.46149C0.852598 4.22215 0.886556 3.96749 1.01034 3.7531C1.13412 3.5387 1.33769 3.38197 1.5766 3.31711C1.81551 3.25225 2.07039 3.28452 2.2856 3.40688L6.56247 5.87625V0.9375C6.56247 0.68886 6.66124 0.450403 6.83706 0.274587C7.01288 0.0987721 7.25133 0 7.49997 0Z" fill="white"/>
</g>
<defs>
<clipPath id="clip0_2_79">
<rect width="15" height="15" fill="white"/>
</clipPath>
</defs>
</svg>
