<svg width="13" height="16" viewBox="0 0 13 16" fill="none" xmlns="http://www.w3.org/2000/svg">
<g clip-path="url(#clip0_2_96)">
<path d="M5.65747 0.171887C6.01554 -0.0562378 6.48429 -0.0562378 6.84236 0.171887L7.42179 0.537512C7.6171 0.659387 7.84497 0.718762 8.07609 0.706262L8.76944 0.665637C9.19913 0.640637 9.60278 0.865637 9.79484 1.23439L10.1073 1.83126C10.2115 2.03126 10.3808 2.19064 10.5859 2.29064L11.2141 2.59376C11.5982 2.77814 11.8326 3.16564 11.8066 3.57814L11.7642 4.24376C11.7512 4.46564 11.8131 4.68751 11.94 4.87189L12.3241 5.42814C12.5618 5.77189 12.5618 6.22189 12.3241 6.56564L11.94 7.12501C11.8131 7.31251 11.7512 7.53126 11.7642 7.75314L11.8066 8.41876C11.8326 8.83126 11.5982 9.21876 11.2141 9.40314L10.5924 9.70314C10.384 9.80314 10.218 9.96564 10.1138 10.1625L9.79809 10.7656C9.60603 11.1344 9.20239 11.3594 8.7727 11.3344L8.07934 11.2938C7.84822 11.2813 7.6171 11.3406 7.42504 11.4625L6.84562 11.8313C6.48754 12.0594 6.01879 12.0594 5.66072 11.8313L5.07804 11.4625C4.88273 11.3406 4.65486 11.2813 4.42374 11.2938L3.73038 11.3344C3.30069 11.3594 2.89705 11.1344 2.70499 10.7656L2.39249 10.1688C2.28833 9.96876 2.11905 9.80939 1.91398 9.70939L1.28572 9.40626C0.901606 9.22189 0.667231 8.83439 0.693273 8.42189L0.735591 7.75626C0.748612 7.53439 0.686763 7.31251 0.55981 7.12814L0.17895 6.56876C-0.0586801 6.22501 -0.0586801 5.77501 0.17895 5.43126L0.55981 4.87501C0.686763 4.68751 0.748612 4.46876 0.735591 4.24689L0.693273 3.58126C0.667231 3.16876 0.901606 2.78126 1.28572 2.59689L1.90747 2.29689C2.1158 2.19376 2.28507 2.03126 2.38924 1.83126L2.70174 1.23439C2.89379 0.865637 3.29744 0.640637 3.72713 0.665637L4.42049 0.706262C4.65161 0.718762 4.88273 0.659387 5.07478 0.537512L5.65747 0.171887ZM8.85408 6.00001C8.85408 5.33697 8.57971 4.70109 8.09134 4.23225C7.60296 3.7634 6.94058 3.50001 6.24991 3.50001C5.55925 3.50001 4.89687 3.7634 4.40849 4.23225C3.92011 4.70109 3.64575 5.33697 3.64575 6.00001C3.64575 6.66305 3.92011 7.29894 4.40849 7.76778C4.89687 8.23662 5.55925 8.50001 6.24991 8.50001C6.94058 8.50001 7.60296 8.23662 8.09134 7.76778C8.57971 7.29894 8.85408 6.66305 8.85408 6.00001ZM0.0422314 13.8063L1.44523 10.6031C1.45174 10.6063 1.45499 10.6094 1.45825 10.6156L1.77075 11.2125C2.15161 11.9375 2.94262 12.3781 3.78898 12.3313L4.48234 12.2906C4.48885 12.2906 4.49861 12.2906 4.50512 12.2969L5.08455 12.6656C5.25056 12.7688 5.42635 12.85 5.60864 12.9063L4.38468 15.6969C4.30981 15.8688 4.14379 15.9844 3.95174 16C3.75968 16.0156 3.57413 15.9313 3.46997 15.775L2.42179 14.2344L0.595617 14.4938C0.41007 14.5188 0.224523 14.4469 0.107336 14.3063C-0.00985191 14.1656 -0.0326384 13.9719 0.0389762 13.8063H0.0422314ZM8.11515 15.6938L6.89119 12.9063C7.07348 12.85 7.24926 12.7719 7.41528 12.6656L7.99471 12.2969C8.00122 12.2938 8.00773 12.2906 8.01749 12.2906L8.71085 12.3313C9.55721 12.3781 10.3482 11.9375 10.7291 11.2125L11.0416 10.6156C11.0448 10.6094 11.0481 10.6063 11.0546 10.6031L12.4609 13.8063C12.5325 13.9719 12.5064 14.1625 12.3925 14.3063C12.2786 14.45 12.0898 14.5219 11.9042 14.4938L10.078 14.2344L9.02986 15.7719C8.92569 15.9281 8.74015 16.0125 8.54809 15.9969C8.35603 15.9813 8.19002 15.8625 8.11515 15.6938Z" fill="white"/>
</g>
<defs>
<clipPath id="clip0_2_96">
<rect width="12.5" height="16" fill="white"/>
</clipPath>
</defs>
</svg>
