<svg width="25" height="25" viewBox="0 0 25 25" fill="none" xmlns="http://www.w3.org/2000/svg">
<path d="M0.84378 6.04688L0.78128 4.6875C0.78128 3.8587 1.11052 3.06384 1.69657 2.47779C2.28262 1.89174 3.07748 1.5625 3.90628 1.5625H9.64378C10.4725 1.56268 11.2672 1.89203 11.8532 2.47812L13.1469 3.77188C13.7328 4.35797 14.5275 4.68732 15.3563 4.6875H21.5782C22.0124 4.68745 22.4419 4.77792 22.8392 4.95311C23.2366 5.12831 23.593 5.38439 23.8859 5.70503C24.1788 6.02567 24.4016 6.40383 24.5401 6.81538C24.6787 7.22693 24.73 7.66284 24.6907 8.09531L24.2907 12.5H22.7188L23.1328 7.95312C23.1524 7.73708 23.1267 7.51934 23.0575 7.31377C22.9882 7.10819 22.8769 6.91929 22.7307 6.75908C22.5844 6.59887 22.4064 6.47087 22.208 6.38322C22.0096 6.29557 21.7951 6.2502 21.5782 6.25H3.42191C3.20485 6.24999 2.99018 6.2952 2.79156 6.38275C2.59295 6.4703 2.41476 6.59827 2.26834 6.7585C2.12193 6.91874 2.0105 7.10772 1.94117 7.3134C1.87184 7.51908 1.84612 7.73695 1.86566 7.95312L2.86097 18.8906C2.89605 19.2788 3.07498 19.6399 3.36262 19.903C3.65026 20.1661 4.02585 20.3121 4.41566 20.3125H14.0625V21.875H4.41566C3.63603 21.8747 2.88467 21.583 2.30909 21.0571C1.73351 20.5313 1.37527 19.8092 1.30472 19.0328L0.309405 8.09531C0.242821 7.37154 0.431896 6.6473 0.84378 6.04844V6.04688ZM10.7485 3.58281C10.4555 3.28977 10.0581 3.12509 9.64378 3.125H3.90628C3.49697 3.12493 3.10398 3.28546 2.81179 3.5721C2.5196 3.85874 2.35156 4.24858 2.34378 4.65781L2.35316 4.875C2.68753 4.75312 3.04691 4.6875 3.42191 4.6875H11.8532L10.7485 3.58281Z" fill="white"/>
<path d="M18.5219 15.8531C18.3752 15.7066 18.1763 15.6244 17.969 15.6245C17.7617 15.6247 17.5629 15.7072 17.4164 15.8539C17.2699 16.0006 17.1877 16.1994 17.1878 16.4067C17.188 16.6141 17.2705 16.8128 17.4172 16.9593L19.2078 18.7499L17.4172 20.5406C17.3445 20.6131 17.2869 20.6992 17.2475 20.794C17.2082 20.8889 17.1879 20.9905 17.1878 21.0931C17.1877 21.3005 17.2699 21.4993 17.4164 21.646C17.5629 21.7927 17.7617 21.8752 17.969 21.8754C18.1763 21.8755 18.3752 21.7933 18.5219 21.6468L20.3125 19.8546L22.1031 21.6468C22.2498 21.7935 22.4488 21.8759 22.6562 21.8759C22.8637 21.8759 23.0627 21.7935 23.2094 21.6468C23.3561 21.5001 23.4385 21.3012 23.4385 21.0937C23.4385 20.8862 23.3561 20.6873 23.2094 20.5406L21.4172 18.7499L23.2094 16.9593C23.3561 16.8128 23.4386 16.6141 23.4387 16.4067C23.4389 16.1994 23.3566 16.0006 23.2101 15.8539C23.0637 15.7072 22.8649 15.6247 22.6576 15.6245C22.4503 15.6244 22.2514 15.7066 22.1047 15.8531L20.3125 17.6453L18.5219 15.8531Z" fill="white"/>
</svg>
